<svg xmlns="http://www.w3.org/2000/svg" xmlns:xlink="http://www.w3.org/1999/xlink" viewBox="0,0,256,256" width="50px" height="50px"><g fill="#d0d4d4" fill-rule="nonzero" stroke="none" stroke-width="1" stroke-linecap="butt" stroke-linejoin="miter" stroke-miterlimit="10" stroke-dasharray="" stroke-dashoffset="0" font-family="none" font-weight="none" font-size="none" text-anchor="none" style="mix-blend-mode: normal"><g transform="scale(5.12,5.12)"><path d="M43.75391,6.40234c-1.2177,-0.05335 -2.45911,0.31055 -3.48242,1.06641l-2.74609,2.02734l-12.52539,9.25977l-12.4082,-9.17187c-0.17292,-0.16897 -0.4012,-0.26957 -0.64258,-0.2832h0.25l-2.46484,-1.82422c-1.02397,-0.75773 -2.26723,-1.12367 -3.48633,-1.07031c-1.2191,0.05336 -2.4131,0.52522 -3.33984,1.43945c-1.17726,1.16068 -1.9082,2.78413 -1.9082,4.56445v3.43359c-0.01457,0.09777 -0.01457,0.19715 0,0.29492v23.36133c0,1.92119 1.57881,3.5 3.5,3.5h7.5c0.55226,-0.00006 0.99994,-0.44774 1,-1v-16.62695l11.40625,8.43164c0.353,0.26043 0.8345,0.26043 1.1875,0l11.40625,-8.43164v16.62695c0.00006,0.55226 0.44774,0.99994 1,1h7.5c1.92119,0 3.5,-1.57881 3.5,-3.5v-23.38086c0.01129,-0.08622 0.01129,-0.17355 0,-0.25977v-3.44922c0,-1.75846 -0.70954,-3.37437 -1.87109,-4.53711c-0.03357,-0.03357 -0.04482,-0.04287 -0.03125,-0.0293c-0.00194,-0.00196 -0.0039,-0.00391 -0.00586,-0.00586c-0.92656,-0.91221 -2.12019,-1.3822 -3.33789,-1.43555zM43.64453,8.40039c0.7563,0.02965 1.48952,0.3165 2.04492,0.86328c0.01891,0.01867 0.03272,0.03277 0.02344,0.02344c0.79645,0.79726 1.28711,1.9015 1.28711,3.12305v3.08594l-8,5.91211v-10.4082c0.00042,-0.0339 -0.00088,-0.0678 -0.00391,-0.10156l2.46289,-1.82031c0.00065,0 0.0013,0 0.00195,0c0.64864,-0.47915 1.42729,-0.70739 2.18359,-0.67773zM6.35742,8.40625c0.75715,-0.02964 1.53847,0.19746 2.1875,0.67773l2.45898,1.81836c-0.00289,0.03247 -0.0042,0.06506 -0.00391,0.09766v10.4082l-8,-5.91211v-3.08594c0,-1.23567 0.50176,-2.3413 1.3125,-3.14062c0.55526,-0.54776 1.28777,-0.83364 2.04492,-0.86328zM37,12.37109v10.51563l-12,8.86914l-12,-8.86914v-10.51367l11.40625,8.43164c0.353,0.26043 0.8345,0.26043 1.1875,0zM3,17.98242l8,5.91406v17.10352h-6.5c-0.84081,0 -1.5,-0.65919 -1.5,-1.5zM47,17.98242v21.51758c0,0.84081 -0.65919,1.5 -1.5,1.5h-6.5v-17.10352z"></path></g></g></svg>