<svg xmlns="http://www.w3.org/2000/svg" xmlns:xlink="http://www.w3.org/1999/xlink" viewBox="0,0,256,256" width="50px" height="50px"><g fill="#d0d4d4" fill-rule="nonzero" stroke="none" stroke-width="1" stroke-linecap="butt" stroke-linejoin="miter" stroke-miterlimit="10" stroke-dasharray="" stroke-dashoffset="0" font-family="none" font-weight="none" font-size="none" text-anchor="none" style="mix-blend-mode: normal"><g transform="scale(8,8)"><path d="M5.21875,4l0.09375,1.09375l1.75,19.78125l0.0625,0.6875l0.65625,0.1875l7.9375,2.21875l0.25,0.0625l0.28125,-0.0625l7.9375,-2.1875l0.65625,-0.1875l0.0625,-0.6875l1.78125,-19.8125l0.09375,-1.0625h-1.09375l-19.375,-0.03125zM7.40625,6l17.1875,0.03125l-1.625,18l-6.96875,1.9375l-7,-1.9375zM9.8125,9l0.65625,7.46875h8.5625l-0.28125,3.21875l-2.75,0.75h-0.03125l-2.75,-0.75l-0.15625,-2.0625h-2.5l0.34375,3.96875l5.0625,1.40625h0.03125l5.0625,-1.40625l0.6875,-7.59375h-9.03125l-0.21875,-2.53125h9.46875l0.21875,-2.46875z"></path></g></g></svg>