<svg xmlns="http://www.w3.org/2000/svg" xmlns:xlink="http://www.w3.org/1999/xlink" viewBox="0,0,256,256" width="50px" height="50px"><g fill="#d0d4d4" fill-rule="nonzero" stroke="none" stroke-width="1" stroke-linecap="butt" stroke-linejoin="miter" stroke-miterlimit="10" stroke-dasharray="" stroke-dashoffset="0" font-family="none" font-weight="none" font-size="none" text-anchor="none" style="mix-blend-mode: normal"><g transform="scale(5.12,5.12)"><path d="M6.66797,4c-1.46094,0 -2.66797,1.20703 -2.66797,2.66797v36.66406c0,1.46094 1.20703,2.66797 2.66797,2.66797h36.66406c1.46094,0 2.66797,-1.20312 2.66797,-2.66797v-36.66406c0,-1.46094 -1.20312,-2.66797 -2.66797,-2.66797zM6.66797,6h36.66406c0.37109,0 0.66797,0.29688 0.66797,0.66797v36.66406c0,0.37109 -0.29687,0.66797 -0.66797,0.66797h-36.66406c-0.37109,0 -0.66797,-0.29687 -0.66797,-0.66797v-36.66406c0,-0.37109 0.29688,-0.66797 0.66797,-0.66797zM23,23v12.57422c0,1.92969 -0.73047,2.42578 -2,2.42578c-1.32812,0 -2.25,-0.82812 -2.85937,-1.90234l-3.14062,1.90234c0.91016,1.92578 3.14063,4 6.23438,4c3.42188,0 5.76563,-1.82031 5.76563,-5.81641v-13.18359zM35.45313,23c-3.40625,0 -5.58984,2.17969 -5.58984,5.04297c0,3.10547 1.83203,4.57422 4.58594,5.74609l0.95313,0.41016c1.73828,0.76172 2.59766,1.22656 2.59766,2.53516c0,1.08984 -0.82812,1.87891 -2.41016,1.87891c-1.88281,0 -2.77344,-1.27734 -3.58984,-2.61328l-3,2c1.12109,2.21484 3.13281,4 6.67578,4c3.625,0 6.32422,-1.88281 6.32422,-5.31641c0,-3.1875 -1.82812,-4.60547 -5.07422,-5.99609l-0.95312,-0.40625c-1.63672,-0.71094 -2.34766,-1.17187 -2.34766,-2.31641c0,-0.92578 0.71094,-1.63672 1.82813,-1.63672c1.09766,0 1.80078,0.46484 2.45313,1.63672l2.97266,-1.90625c-1.25391,-2.21484 -3,-3.05859 -5.42578,-3.05859z"></path></g></g></svg>