<svg xmlns="http://www.w3.org/2000/svg" xmlns:xlink="http://www.w3.org/1999/xlink" viewBox="0,0,256,256" width="50px" height="50px"><g fill="#d0d4d4" fill-rule="nonzero" stroke="none" stroke-width="1" stroke-linecap="butt" stroke-linejoin="miter" stroke-miterlimit="10" stroke-dasharray="" stroke-dashoffset="0" font-family="none" font-weight="none" font-size="none" text-anchor="none" style="mix-blend-mode: normal"><g transform="scale(2,2)"><path d="M24,117h60c7.2,0 13,-5.8 13,-13v-45c0,-1.7 -1.3,-3 -3,-3c-1.7,0 -3,1.3 -3,3v45c0,3.9 -3.1,7 -7,7h-60c-3.9,0 -7,-3.1 -7,-7v-60c0,-3.9 3.1,-7 7,-7h45c1.7,0 3,-1.3 3,-3c0,-1.7 -1.3,-3 -3,-3h-45c-7.2,0 -13,5.8 -13,13v60c0,7.2 5.8,13 13,13z"></path><path d="M114,47c1.7,0 3,-1.3 3,-3v-30c0,-1.7 -1.3,-3 -3,-3h-30c-1.7,0 -3,1.3 -3,3c0,1.7 1.3,3 3,3h22.8l-46.4,46.4c-1.2,1.2 -1.2,3.1 0,4.2c0.6,0.6 1.4,0.9 2.1,0.9c0.7,0 1.5,-0.3 2.1,-0.9l46.4,-46.4v22.8c0,1.7 1.3,3 3,3z"></path></g></g></svg>