<svg xmlns="http://www.w3.org/2000/svg" xmlns:xlink="http://www.w3.org/1999/xlink" viewBox="0,0,256,256" width="50px" height="50px"><g fill="none" fill-rule="nonzero" stroke="none" stroke-width="1" stroke-linecap="butt" stroke-linejoin="miter" stroke-miterlimit="10" stroke-dasharray="" stroke-dashoffset="0" font-family="none" font-weight="none" font-size="none" text-anchor="none" style="mix-blend-mode: normal"><g transform="scale(5.33333,5.33333)"><path d="M42,17.3c0,20.5 -18,26.7 -18,26.7c0,0 -18,-6.2 -18,-26.7c0,-2.5 0.2,-4.6 0.4,-6.3c0.3,-2.5 2,-4.5 4.4,-5.1c3.1,-0.9 8,-1.9 13.2,-1.9c5.2,0 10.1,1 13.3,1.9c2.4,0.6 4.1,2.7 4.4,5.1c0.1,1.7 0.3,3.9 0.3,6.3z" fill-opacity="0" fill="#d0d4d4"></path><path d="M24,7c4.9,0 9.5,1 12.5,1.8c1.2,0.3 2,1.3 2.2,2.6c0.2,1.9 0.3,3.9 0.3,5.9c0,15.6 -11.5,21.9 -15,23.4c-3.5,-1.6 -15,-7.9 -15,-23.4c0,-2 0.1,-4 0.3,-5.9c0.1,-1.3 1,-2.3 2.2,-2.6c3,-0.8 7.6,-1.8 12.5,-1.8M24,4c-5.2,0 -10.1,1 -13.3,1.9c-2.3,0.6 -4.1,2.7 -4.3,5.1c-0.2,1.7 -0.4,3.9 -0.4,6.3c0,20.5 18,26.7 18,26.7c0,0 18,-6.2 18,-26.7c0,-2.5 -0.2,-4.6 -0.4,-6.3c-0.3,-2.5 -2,-4.5 -4.4,-5.1c-3.1,-0.9 -8,-1.9 -13.2,-1.9z" fill="#d0d4d4"></path><path d="M23,28h2v8h-2z" fill="#d0d4d4"></path><path d="M24,10c0,0 -6,5 -6,13c0,5.2 3.3,8.5 5,10l1,-3l1,3c1.7,-1.5 5,-4.8 5,-10c0,-8 -6,-13 -6,-13z" fill="#d0d4d4"></path><path d="M24,10c0,0 -6,5 -6,13c0,5.2 3.3,8.5 5,10l1,-3z" fill="#d0d4d4"></path></g></g></svg>