<svg xmlns="http://www.w3.org/2000/svg" xmlns:xlink="http://www.w3.org/1999/xlink" viewBox="0,0,256,256" width="50px" height="50px"><g fill="#d0d4d4" fill-rule="nonzero" stroke="none" stroke-width="1" stroke-linecap="butt" stroke-linejoin="miter" stroke-miterlimit="10" stroke-dasharray="" stroke-dashoffset="0" font-family="none" font-weight="none" font-size="none" text-anchor="none" style="mix-blend-mode: normal"><g transform="scale(8,8)"><path d="M15.99414,3c-0.365,0 -0.72992,0.08953 -1.04492,0.26953l-9.91016,5.7207c-0.64,0.37 -1.03906,1.07055 -1.03906,1.81055v10.37891c0,0.75 0.39906,1.44055 1.03906,1.81055l2.60156,1.5c1.26,0.62 1.7093,0.61914 2.2793,0.61914c1.87,0 2.93945,-1.12984 2.93945,-3.08984v-10.70898c0,-0.16 -0.12906,-0.29102 -0.28906,-0.29102h-1.25c-0.17,0 -0.29101,0.13102 -0.29101,0.29102v10.69922c0,0.88 -0.90891,1.73977 -2.37891,1.00977l-2.7207,-1.57031c-0.1,-0.05 -0.16016,-0.15953 -0.16016,-0.26953v-10.36914c0,-0.12 0.06016,-0.22125 0.16016,-0.28125l9.91016,-5.71875c0.09,-0.06 0.21055,-0.06 0.31055,0l9.91016,5.71875c0.1,0.06 0.16016,0.16148 0.16016,0.27148v10.37891c0,0.11 -0.06039,0.21953 -0.15039,0.26953l-9.91992,5.73047c-0.09,0.05 -0.22055,0.05 -0.31055,0l-2.55078,-1.50977c-0.07,-0.05 -0.16828,-0.05953 -0.23828,-0.01953c-0.71,0.4 -0.84,0.44969 -1.5,0.67969c-0.16,0.05 -0.41016,0.14969 0.08984,0.42969l3.30859,1.96094c0.32,0.18 0.68102,0.2793 1.04101,0.2793c0.37,0 0.72883,-0.0993 1.04883,-0.2793l9.92188,-5.73047c0.64,-0.37 1.03906,-1.06055 1.03906,-1.81055v-10.36914c0,-0.75 -0.39906,-1.44055 -1.03906,-1.81055l-9.92188,-5.73047c-0.315,-0.18 -0.67992,-0.26953 -1.04492,-0.26953zM18.66016,11.00586c-2.83,0 -4.51953,1.19922 -4.51953,3.19922c0,2.17 1.67844,2.76906 4.39844,3.03906c3.25,0.32 3.5,0.80141 3.5,1.44141c0,1.1 -0.88852,1.57031 -2.97852,1.57031c-2.63,0 -3.21039,-0.66094 -3.40039,-1.96094c-0.02,-0.14 -0.1393,-0.24023 -0.2793,-0.24023h-1.29101c-0.16,0 -0.2793,0.13125 -0.2793,0.28125c0,1.67 0.91,3.6582 5.25,3.6582c3.14,0 4.93945,-1.23844 4.93945,-3.39844c0,-2.14 -1.45023,-2.71109 -4.49023,-3.12109c-3.09,-0.4 -3.40039,-0.61008 -3.40039,-1.33008c0,-0.6 0.27078,-1.38867 2.55078,-1.38867c2.03,0 2.78961,0.43859 3.09961,1.80859c0.03,0.13 0.1393,0.23047 0.2793,0.23047h1.29102c0.08,0 0.14898,-0.03961 0.20898,-0.09961c0.05,-0.05 0.08031,-0.1307 0.07031,-0.2207c-0.2,-2.36 -1.76922,-3.46875 -4.94922,-3.46875z"></path></g></g></svg>