<svg xmlns="http://www.w3.org/2000/svg" xmlns:xlink="http://www.w3.org/1999/xlink" viewBox="0,0,256,256" width="50px" height="50px"><g fill="#d0d4d4" fill-rule="nonzero" stroke="none" stroke-width="1" stroke-linecap="butt" stroke-linejoin="miter" stroke-miterlimit="10" stroke-dasharray="" stroke-dashoffset="0" font-family="none" font-weight="none" font-size="none" text-anchor="none" style="mix-blend-mode: normal"><g transform="scale(5.12,5.12)"><path d="M25,2c-4.05859,0 -6.8125,0.96875 -8.5625,2.375c-1.75,1.40625 -2.4375,3.21484 -2.4375,4.71875v4.90625h10v1h-14.90625c-1.82812,0 -3.68359,0.79297 -5,2.46875c-1.31641,1.67578 -2.09375,4.17578 -2.09375,7.53125c0,3.35547 0.77734,5.85547 2.09375,7.53125c1.31641,1.67578 3.17188,2.46875 5,2.46875h4.90625v5.90625c0,1.50391 0.6875,3.3125 2.4375,4.71875c1.75,1.40625 4.50391,2.375 8.5625,2.375c4.05859,0 6.8125,-0.96875 8.5625,-2.375c1.75,-1.40625 2.4375,-3.21484 2.4375,-4.71875v-4.90625h-10v-1h14.90625c1.82813,0 3.68359,-0.79297 5,-2.46875c1.31641,-1.67578 2.09375,-4.17578 2.09375,-7.53125c0,-3.35547 -0.77734,-5.85547 -2.09375,-7.53125c-1.31641,-1.67578 -3.17187,-2.46875 -5,-2.46875h-4.90625v-5.90625c0,-1.54297 -0.68359,-3.35547 -2.4375,-4.75c-1.75391,-1.39453 -4.50781,-2.34375 -8.5625,-2.34375zM25,4c3.74609,0 6.01563,0.875 7.3125,1.90625c1.29688,1.03125 1.6875,2.23047 1.6875,3.1875v11.90625c0,1.65625 -1.34375,3 -3,3h-12c-2.05859,0 -3.83203,1.26953 -4.59375,3.0625c-0.12891,0.29688 -0.24609,0.61328 -0.3125,0.9375c-0.06641,0.32422 -0.09375,0.65625 -0.09375,1v4h-4.90625c-1.26953,0 -2.44531,-0.49609 -3.40625,-1.71875c-0.96094,-1.22266 -1.6875,-3.23828 -1.6875,-6.28125c0,-3.04297 0.72656,-5.05859 1.6875,-6.28125c0.96094,-1.22266 2.13672,-1.71875 3.40625,-1.71875h16.90625v-5h-10v-2.90625c0,-0.89453 0.38672,-2.11328 1.6875,-3.15625c1.30078,-1.04297 3.57031,-1.9375 7.3125,-1.9375zM20,7c-1.10156,0 -2,0.89844 -2,2c0,1.10156 0.89844,2 2,2c1.10156,0 2,-0.89844 2,-2c0,-1.10156 -0.89844,-2 -2,-2zM36,17h4.90625c1.26953,0 2.44531,0.49609 3.40625,1.71875c0.96094,1.22266 1.6875,3.23828 1.6875,6.28125c0,3.04297 -0.72656,5.05859 -1.6875,6.28125c-0.96094,1.22266 -2.13672,1.71875 -3.40625,1.71875h-16.90625v5h10v2.90625c0,0.89453 -0.38672,2.11328 -1.6875,3.15625c-1.30078,1.04297 -3.57031,1.9375 -7.3125,1.9375c-3.74219,0 -6.01172,-0.89453 -7.3125,-1.9375c-1.30078,-1.04297 -1.6875,-2.26172 -1.6875,-3.15625v-11.90625c0,-0.20703 0.02344,-0.39844 0.0625,-0.59375c0.28125,-1.36719 1.48828,-2.40625 2.9375,-2.40625h12c2.74609,0 5,-2.25391 5,-5zM30,39c-1.10156,0 -2,0.89844 -2,2c0,1.10156 0.89844,2 2,2c1.10156,0 2,-0.89844 2,-2c0,-1.10156 -0.89844,-2 -2,-2z"></path></g></g></svg>